/* XPM */
static char *_6a3a356f83f40cabe1460783ceaed36[] = {
/* columns rows colors chars-per-pixel */
"128 128 2 1 ",
"  c None",
". c #BB9E88",
/* pixels */
"                                                                                                                                ",
"                                                                                                                                ",
"                                                                                                                                ",
"                                                                                                                                ",
"                                                                                                                                ",
"                                                                                                                                ",
"                                                                                                                                ",
"                                                                                                                                ",
"                                                                                                                                ",
"                                                                                                                                ",
"                                                                                                                                ",
"                                                                                                                                ",
"                                                               .                                                                ",
"                                                             .....                                                              ",
"                                                            .......                                                             ",
"                                                          ...........                                                           ",
"                                                        ...............                                                         ",
"                                                      ...................                                                       ",
"                                                     .....................                                                      ",
"                                                   .........................                                                    ",
"                                                 ............................                                                   ",
"                                               .............................                                                    ",
"                                              ............................     ..                                               ",
"                                            ............................      .....                                             ",
"                                          .....................  ......     .........                                           ",
"                                        .....................      ..     .............                                         ",
"                                       .....................            ................                                        ",
"                                     .....................             ...................                                      ",
"                                   .....................             .......................                                    ",
"                                  .....................            ..........................                                   ",
"                                .....................            ..............................                                 ",
"                              .....................             .................................                               ",
"                            .....................             .....................................                             ",
"                           .....................            .................... ...................                            ",
"                         .....................             ...................     ...................                          ",
"                       .....................             ...................        ....................                        ",
"                     .....................             ....................           ....................                      ",
"                     .....................           ....................             ....................                      ",
"                       .....................        ...................             .....................                       ",
"                        ......................    ....................            .....................                         ",
"                          ..................... ....................            .....................                           ",
"                  .         ......................................             ....................          ..                 ",
"                 ...         ...................................             .....................          ...                 ",
"                 .....         ................................            .....................          .....                 ",
"                 .......         ............................            .....................          .......                 ",
"                 ........          ........................             ....................          .........                 ",
"                 ..........         .....................             .....................          ..........                 ",
"                 ............         ..................            .....................          ............                 ",
"                 ..............         ..............      ..    .....................          ..............                 ",
"                 ...............          ..........      .....  ....................          ................                 ",
"                 .................         ........      ...........................         ..................                 ",
"                 ...................         ....      ...........................          ...................                 ",
"                 .....................               ...........................          .....................                 ",
"                 ......................            ...........................          .......................                 ",
"                 ........................          ..........................          ........................                 ",
"                 .........................          .......................          ..........................                 ",
"                 ...........................          ...................          ............................                 ",
"                 .............................         .................          .............................                 ",
"                 ...............................         .............          ...............................                 ",
"                 ........... ....................          .........          ....................   .........                  ",
"                 ...........  .....................         ......          .....................    ........                   ",
"                 ...........    .....................         ...         .....................      ......                     ",
"                 ...........      .....................                  ....................        ....                       ",
"                 ...........        ....................               ....................          ...                        ",
"                 ...........         .....................           .....................           .                          ",
"                 ...........           .....................       .....................                                        ",
"                 ............            ....................      ...................                                          ",
"                 .............             ..................      ..................                                           ",
"                 ...............            .................      ................                                             ",
"                 .................            ...............      ..............                                               ",
"                 ..................             .............      ............                                                 ",
"                 ....................             ...........      ...........                                                  ",
"                 ......................            ..........      ...........                               ..                 ",
"                 ........................          ..........      ...........                              ...                 ",
"                 .........................         ..........      ...........                            .....                 ",
"                 ...........................       ..........      ...........                          .......                 ",
"                 ............................      ..........      ...........                         ........                 ",
"                 ..............................    ..........      ...........                       ..........                 ",
"                 ........... ....................  ..........      ...........                       ..........                 ",
"                 ...........   ..............................      ...........                       ..........                 ",
"                 ...........    .............................      ...........                       ..........                 ",
"                 ...........      ...........................      ...........                       ..........                 ",
"                 ...........        .........................      ...........                       ..........                 ",
"                 ...........          .......................      ...........                       ..........                 ",
"                 ...........           ......................      ...........                      ...........                 ",
"                 ............            ...................       ...........                    .............                 ",
"                 .............             ...............         ...........                   ..............                 ",
"                 ...............             .............         ...........                 ................                 ",
"                 .................            ..............       ...........               ..................                 ",
"                 ...................            .............      ...........             ....................                 ",
"                 ....................             ...........      ...........            .....................                 ",
"                  .....................            ..........      ...........          .....................                   ",
"                    .....................          ..........      ...........        ......................                    ",
"                     .....................         ..........      ...........      ......................                      ",
"                       .....................       ..........      ...........     .....................                        ",
"                         .....................     ..........      ...........   .....................                          ",
"                          .....................    ..........      ..........  ......................                           ",
"                            .....................  ..........      ................................                             ",
"                              ...............................      ..............................                               ",
"                                .............................      .............................                                ",
"                                 ............................      ...........................                                  ",
"                                   ..........................      .........................                                    ",
"                                     ........................      .......................                                      ",
"                                       ......................      ......................                                       ",
"                                        .....................      ....................                                         ",
"                                          ...................      ..................                                           ",
"                                            .................      ................                                             ",
"                                              ...............      ...............                                              ",
"                                               ..............      .............                                                ",
"                                                 ............      ...........                                                  ",
"                                                   ..........      .........                                                    ",
"                                                     ........      ........                                                     ",
"                                                      .......      ......                                                       ",
"                                                        .....      ....                                                         ",
"                                                          ...      ...                                                          ",
"                                                            .      .                                                            ",
"                                                                                                                                ",
"                                                                                                                                ",
"                                                                                                                                ",
"                                                                                                                                ",
"                                                                                                                                ",
"                                                                                                                                ",
"                                                                                                                                ",
"                                                                                                                                ",
"                                                                                                                                ",
"                                                                                                                                ",
"                                                                                                                                ",
"                                                                                                                                "
};
