/* XPM */
static char *result[] = {
/* columns rows colors chars-per-pixel */
"32 32 2 1 ",
"  c #BB9E88",
". c None",
/* pixels */
"................................",
"................................",
"................................",
"...............  ...............",
".............      .............",
"............       .............",
"..........     ....   ..........",
"........     ....       ........",
"......      ...     .    .......",
"......     ..     ...     ......",
".......         ...     ........",
"....  ...     ....     ..   ....",
"....    ...  ..      ...    ....",
"....      ...      ...      ....",
"....        ..    ..        ....",
"....   .     ......    ..  .....",
"....   ...     ..     ..........",
"....     ...   ..   ............",
"....      ...  ..  ........ ....",
"....        .  ..  ......   ....",
"....   ..      ..  ......   ....",
"....   ....    ..  .....    ....",
"....     ...   ..  ....     ....",
"......     ..  ..  ..     ......",
".......        ..        .......",
".........      ..      .........",
"...........    ..    ...........",
"............   ..  .............",
".............. .. ..............",
"................................",
"................................",
"................................"
};
